<svg xmlns="http://www.w3.org/2000/svg" viewBox="0 0 300 300">
  <!-- Background -->
  <rect width="300" height="300" fill="#444" />
  <!-- Intersection lines -->
  <rect x="120" width="60" height="300" fill="#555" />
  <rect y="120" width="300" height="60" fill="#555" />

  <!-- Cars and motorcycles -->
  <rect x="30" y="130" width="40" height="20" fill="#222" />
  <rect x="230" y="150" width="40" height="20" fill="#222" />
  <rect x="150" y="30" width="20" height="40" fill="#222" />
  <rect x="130" y="230" width="20" height="40" fill="#222" />
  <!-- brake lights -->
  <rect x="30" y="146" width="40" height="4" fill="red" />
  <rect x="230" y="166" width="40" height="4" fill="red" />

  <!-- puddles -->
  <ellipse cx="50" cy="200" rx="15" ry="5" fill="#222" />
  <ellipse cx="250" cy="90" rx="15" ry="5" fill="#222" />
  
  <!-- garbage piles -->
  <polygon points="5,5 20,5 15,20" fill="#666" />
  <polygon points="280,280 295,280 290,260" fill="#666" />

  <!-- dogs -->
  <circle cx="60" cy="50" r="5" fill="#999" />
  <circle cx="250" cy="250" r="5" fill="#999" />

  <!-- kittens (simplified) -->
  <g fill="orange">
    <!-- 1: neon sign hole -->
    <circle cx="180" cy="20" r="3" />
    <!-- 2: behind motorcycle -->
    <circle cx="245" cy="155" r="3" />
    <!-- 3: with garbage bags -->
    <circle cx="20" cy="280" r="3" />
    <!-- 4: gas cylinder -->
    <circle cx="130" cy="250" r="3" />
    <!-- 5: tunnel grill -->
    <circle cx="280" cy="130" r="3" />
    <!-- 6: pavement crack -->
    <circle cx="150" cy="180" r="3" />
    <!-- 7: subway vent -->
    <circle cx="115" cy="115" r="3" />
    <!-- 8: broken bottle -->
    <circle cx="200" cy="220" r="3" />
    <!-- 9: broken ad sign -->
    <circle cx="60" cy="150" r="3" />
  </g>

  <!-- flickering lamp posts -->
  <rect x="10" y="30" width="4" height="40" fill="#888" />
  <rect x="286" y="230" width="4" height="40" fill="#888" />
</svg>
